<svg version="1.2" xmlns="http://www.w3.org/2000/svg" viewBox="0 0 24 22" width="24" height="22"><style></style><path fill-rule="evenodd" d="m0.8 0c-0.4 0-0.8 0.4-0.8 0.8 0 0.5 0.4 0.8 0.8 0.8h2.5l2.8 13.4c0.1 0.5 0.4 1 0.8 0.9h13.4c0.4 0.1 0.8-0.3 0.8-0.8 0-0.4-0.4-0.8-0.8-0.8h-12.7l-0.4-1.7h14.1c0.4 0 0.7-0.2 0.8-0.6l1.9-8.2c0.1-0.5-0.3-1-0.8-1h-18l-0.4-2.1c-0.1-0.4-0.4-0.7-0.8-0.7zm4.8 4.4h4.8v2.5h-4.3zm6.4 0h3.7v2.5h-3.7zm5.4 0h4.8l-0.5 2.4h-4.3zm-11 4.2h4v2.4h-3.5zm5.6 0h3.8v2.5h-3.8zm5.4 0h3.9l-0.6 2.5h-3.3zm-7.8 8c-1.4 0-2.6 1.2-2.6 2.7 0 1.5 1.2 2.8 2.6 2.8 1.5 0 2.7-1.3 2.7-2.8 0-1.5-1.2-2.7-2.7-2.7zm8 0c-1.4 0-2.6 1.2-2.6 2.7 0 1.5 1.2 2.8 2.6 2.8 1.5 0 2.7-1.3 2.7-2.8 0-1.5-1.2-2.7-2.7-2.7zm-8 1.6c0.6 0 1.1 0.5 1.1 1.1 0 0.6-0.5 1.1-1.1 1.1-0.6 0-1-0.5-1-1.1 0-0.6 0.4-1.1 1-1.1zm8 0c0.6 0 1.1 0.5 1.1 1.1 0 0.6-0.5 1.1-1.1 1.1-0.6 0-1-0.5-1-1.1 0-0.6 0.4-1.1 1-1.1z"/></svg>