<svg version="1.2" xmlns="http://www.w3.org/2000/svg" viewBox="0 0 28 43" width="28" height="43"><path fill-rule="evenodd" class="a" d="m20.6 3.2c1.8 0.4 3.2 1.3 3.2 3.2 0 0.9-0.9 2-1.7 2.8l-0.7-0.5q-0.6-0.4-1.4-0.6zm-12.1 15.4h3.5v1.4h-3.5zm0.8-15.7q1 0 2 0c0.3 0 0.7-0.4 0.7-0.8v-1.4c0-0.4 0.3-0.7 0.7-0.7h2.8c0.3 0 0.7 0.3 0.7 0.7v1.4c0 0.4 0.3 0.8 0.7 0.8 0.7 0 1.5 0 2.3 0.1l-0.5 4.9q-0.6 0-1.2 0.1c-1.3 0.3-2.5 1.1-3.4 2.2-1-1.1-2.2-1.9-3.5-2.2q-0.6-0.1-1.1-0.1zm8.5 6.4c1.1-0.2 2.1 0 2.8 0.5l1.1 0.8c-0.2 3.3-0.9 5.4-1.5 6.5h-4.1c0-0.8-0.6-1.4-1.4-1.4h-1.3c-0.8 0-1.5 0.6-1.5 1.4h-4.1c-0.5-1.1-1.3-3.2-1.4-6.6l1-0.7c0.8-0.5 1.8-0.7 2.9-0.5 1.2 0.3 2.4 1.2 3.1 2.5 0.3 0.4 1 0.4 1.2 0 0.8-1.3 1.9-2.2 3.2-2.5zm-3.1 12.1q0 0 0 0h-1.4l0.1-4.3h1.3zm1.4-2.8h3.5v1.4h-3.5zm-10.2-9.4c-0.8-0.8-1.7-2-1.7-2.8 0-2 1.7-2.9 3.7-3.3l0.2 4.9q-0.8 0.3-1.4 0.7zm20 27.4c0.4 0 0.7-0.4 0.7-0.8 0-0.4-0.3-0.7-0.7-0.7-0.4 0-0.7 0.3-0.7 0.7 0 0.4 0.3 0.8 0.7 0.8zm-1.4 2.1c0.4 0 0.7-0.3 0.7-0.7 0-0.4-0.3-0.7-0.7-0.7-0.4 0-0.7 0.3-0.7 0.7 0 0.4 0.3 0.7 0.7 0.7zm-1.4 2.2c0.4 0 0.7-0.4 0.7-0.8 0-0.4-0.3-0.7-0.7-0.7-0.4 0-0.7 0.3-0.7 0.7 0 0.4 0.3 0.8 0.7 0.8zm-1.4-2.2c0.4 0 0.7-0.3 0.7-0.7 0-0.4-0.3-0.7-0.7-0.7-0.4 0-0.7 0.3-0.7 0.7 0 0.4 0.3 0.7 0.7 0.7zm-1.4 2.2c0.4 0 0.7-0.4 0.7-0.8 0-0.4-0.3-0.7-0.7-0.7-0.4 0-0.7 0.3-0.7 0.7 0 0.4 0.3 0.8 0.7 0.8zm-1.4-2.2c0.4 0 0.7-0.3 0.7-0.7 0-0.4-0.3-0.7-0.7-0.7-0.4 0-0.7 0.3-0.7 0.7 0 0.4 0.3 0.7 0.7 0.7zm-1.4 2.2c0.4 0 0.7-0.4 0.7-0.8 0-0.4-0.3-0.7-0.7-0.7-0.4 0-0.7 0.3-0.7 0.7 0 0.4 0.3 0.8 0.7 0.8zm-1.4-2.2c0.4 0 0.7-0.3 0.7-0.7 0-0.4-0.3-0.7-0.7-0.7-0.4 0-0.7 0.3-0.7 0.7 0 0.4 0.3 0.7 0.7 0.7zm-1.4 2.2c0.4 0 0.7-0.4 0.7-0.8 0-0.4-0.3-0.7-0.7-0.7-0.4 0-0.7 0.3-0.7 0.7 0 0.4 0.3 0.8 0.7 0.8zm-1.4-2.2c0.4 0 0.7-0.3 0.7-0.7 0-0.4-0.3-0.7-0.7-0.7-0.4 0-0.7 0.3-0.7 0.7 0 0.4 0.3 0.7 0.7 0.7zm-1.4 2.2c0.4 0 0.7-0.4 0.7-0.8 0-0.4-0.3-0.7-0.7-0.7-0.4 0-0.7 0.3-0.7 0.7 0 0.4 0.3 0.8 0.7 0.8zm-1.4-2.2c0.4 0 0.7-0.3 0.7-0.7 0-0.4-0.3-0.7-0.7-0.7-0.4 0-0.7 0.3-0.7 0.7 0 0.4 0.3 0.7 0.7 0.7zm-1.4 2.2c0.4 0 0.7-0.4 0.7-0.8 0-0.4-0.3-0.7-0.7-0.7-0.4 0-0.7 0.3-0.7 0.7 0 0.4 0.3 0.8 0.7 0.8zm-1.4-2.2c0.4 0 0.7-0.3 0.7-0.7 0-0.4-0.3-0.7-0.7-0.7-0.4 0-0.7 0.3-0.7 0.7 0 0.4 0.3 0.7 0.7 0.7zm-1.4 2.2c0.4 0 0.7-0.4 0.7-0.8 0-0.4-0.3-0.7-0.7-0.7-0.4 0-0.7 0.3-0.7 0.7 0 0.4 0.3 0.8 0.7 0.8zm-1.4-2.2c0.4 0 0.7-0.3 0.7-0.7 0-0.4-0.3-0.7-0.7-0.7-0.4 0-0.7 0.3-0.7 0.7 0 0.4 0.3 0.7 0.7 0.7zm-1.4-2.1c0.4 0 0.7-0.4 0.7-0.8 0-0.4-0.3-0.7-0.7-0.7-0.4 0-0.7 0.3-0.7 0.7 0 0.4 0.3 0.8 0.7 0.8zm-1.4 2.1c0.4 0 0.7-0.3 0.7-0.7 0-0.4-0.3-0.7-0.7-0.7-0.4 0-0.7 0.3-0.7 0.7 0 0.4 0.3 0.7 0.7 0.7zm1.4-7.9c-0.4 0-0.7 0.3-0.7 0.7 0 0.4 0.3 0.8 0.7 0.8 0.4 0 0.7-0.4 0.7-0.8 0-0.4-0.3-0.7-0.7-0.7zm1.4-2.1c-0.4 0-0.7 0.3-0.7 0.7 0 0.4 0.3 0.7 0.7 0.7 0.4 0 0.7-0.3 0.7-0.7 0-0.4-0.3-0.7-0.7-0.7zm1.4-2.2c-0.4 0-0.7 0.3-0.7 0.7 0 0.4 0.3 0.8 0.7 0.8 0.4 0 0.7-0.4 0.7-0.8 0-0.4-0.3-0.7-0.7-0.7zm1.4-2.1c-0.4 0-0.7 0.3-0.7 0.7 0 0.4 0.3 0.7 0.7 0.7 0.4 0 0.7-0.3 0.7-0.7 0-0.4-0.3-0.7-0.7-0.7zm1.4-2.2c-0.4 0-0.7 0.3-0.7 0.7 0 0.4 0.3 0.8 0.7 0.8 0.4 0 0.7-0.4 0.7-0.8 0-0.4-0.3-0.7-0.7-0.7zm1.4 2.2c-0.4 0-0.7 0.3-0.7 0.7 0 0.4 0.3 0.7 0.7 0.7 0.4 0 0.7-0.3 0.7-0.7 0-0.4-0.3-0.7-0.7-0.7zm1.4 2.1c-0.4 0-0.7 0.3-0.7 0.7 0 0.4 0.3 0.8 0.7 0.8 0.4 0 0.7-0.4 0.7-0.8 0-0.4-0.3-0.7-0.7-0.7zm1.4-2.1c-0.4 0-0.7 0.3-0.7 0.7 0 0.4 0.3 0.7 0.7 0.7 0.4 0 0.7-0.3 0.7-0.7 0-0.4-0.3-0.7-0.7-0.7zm1.4 2.1c-0.4 0-0.7 0.3-0.7 0.7 0 0.4 0.3 0.8 0.7 0.8 0.4 0 0.7-0.4 0.7-0.8 0-0.4-0.3-0.7-0.7-0.7zm1.4-2.1c-0.4 0-0.7 0.3-0.7 0.7 0 0.4 0.3 0.7 0.7 0.7 0.4 0 0.7-0.3 0.7-0.7 0-0.4-0.3-0.7-0.7-0.7zm1.4-2.2c-0.4 0-0.7 0.3-0.7 0.7 0 0.4 0.3 0.8 0.7 0.8 0.4 0 0.7-0.4 0.7-0.8 0-0.4-0.3-0.7-0.7-0.7zm1.4 2.2c-0.4 0-0.7 0.3-0.7 0.7 0 0.4 0.3 0.7 0.7 0.7 0.4 0 0.7-0.3 0.7-0.7 0-0.4-0.3-0.7-0.7-0.7zm1.4-2.2c-0.4 0-0.7 0.3-0.7 0.7 0 0.4 0.3 0.8 0.7 0.8 0.4 0 0.7-0.4 0.7-0.8 0-0.4-0.3-0.7-0.7-0.7zm1.4 2.2c-0.4 0-0.7 0.3-0.7 0.7 0 0.4 0.3 0.7 0.7 0.7 0.4 0 0.7-0.3 0.7-0.7 0-0.4-0.3-0.7-0.7-0.7zm1.4 2.1c-0.4 0-0.7 0.3-0.7 0.7 0 0.4 0.3 0.8 0.7 0.8 0.4 0 0.7-0.4 0.7-0.8 0-0.4-0.3-0.7-0.7-0.7zm0 5.8c0.4 0 0.7-0.4 0.7-0.8 0-0.4-0.3-0.7-0.7-0.7-0.4 0-0.7 0.3-0.7 0.7 0 0.4 0.3 0.8 0.7 0.8zm0 2.8c-0.4 0-0.7 0.3-0.7 0.7 0 0.4 0.3 0.8 0.7 0.8 0.4 0 0.7-0.4 0.7-0.8 0-0.4-0.3-0.7-0.7-0.7zm-1.4-2.1c-0.4 0-0.7 0.3-0.7 0.7 0 0.4 0.3 0.7 0.7 0.7 0.4 0 0.7-0.3 0.7-0.7 0-0.4-0.3-0.7-0.7-0.7zm0-4.3c-0.4 0-0.7 0.3-0.7 0.7 0 0.4 0.3 0.7 0.7 0.7 0.4 0 0.7-0.3 0.7-0.7 0-0.4-0.3-0.7-0.7-0.7zm-1.4-0.7c0.4 0 0.7-0.4 0.7-0.8 0-0.4-0.3-0.7-0.7-0.7-0.4 0-0.7 0.3-0.7 0.7 0 0.4 0.3 0.8 0.7 0.8zm0 4.3c0.4 0 0.7-0.4 0.7-0.8 0-0.4-0.3-0.7-0.7-0.7-0.4 0-0.7 0.3-0.7 0.7 0 0.4 0.3 0.8 0.7 0.8zm0 2.8c-0.4 0-0.7 0.3-0.7 0.7 0 0.4 0.3 0.8 0.7 0.8 0.4 0 0.7-0.4 0.7-0.8 0-0.4-0.3-0.7-0.7-0.7zm-1.4-2.1c-0.4 0-0.7 0.3-0.7 0.7 0 0.4 0.3 0.7 0.7 0.7 0.4 0 0.7-0.3 0.7-0.7 0-0.4-0.3-0.7-0.7-0.7zm0-4.3c-0.4 0-0.7 0.3-0.7 0.7 0 0.4 0.3 0.7 0.7 0.7 0.4 0 0.7-0.3 0.7-0.7 0-0.4-0.3-0.7-0.7-0.7zm-1.4-0.7c0.4 0 0.7-0.4 0.7-0.8 0-0.4-0.3-0.7-0.7-0.7-0.4 0-0.7 0.3-0.7 0.7 0 0.4 0.3 0.8 0.7 0.8zm0 4.3c0.4 0 0.7-0.4 0.7-0.8 0-0.4-0.3-0.7-0.7-0.7-0.4 0-0.7 0.3-0.7 0.7 0 0.4 0.3 0.8 0.7 0.8zm0 2.8c-0.4 0-0.7 0.3-0.7 0.7 0 0.4 0.3 0.8 0.7 0.8 0.4 0 0.7-0.4 0.7-0.8 0-0.4-0.3-0.7-0.7-0.7zm-2.1-5.7c0 0.4 0.3 0.7 0.7 0.7 0.4 0 0.7-0.3 0.7-0.7 0-0.4-0.3-0.7-0.7-0.7-0.4 0-0.7 0.3-0.7 0.7zm0.7 3.6c-0.4 0-0.7 0.3-0.7 0.7 0 0.4 0.3 0.7 0.7 0.7 0.4 0 0.7-0.3 0.7-0.7 0-0.4-0.3-0.7-0.7-0.7zm-1.4-0.7c0.4 0 0.7-0.4 0.7-0.8 0-0.4-0.3-0.7-0.7-0.7-0.4 0-0.7 0.3-0.7 0.7 0 0.4 0.3 0.8 0.7 0.8zm0 2.8c-0.4 0-0.7 0.3-0.7 0.7 0 0.4 0.3 0.8 0.7 0.8 0.4 0 0.7-0.4 0.7-0.8 0-0.4-0.3-0.7-0.7-0.7zm-2.1-5.7c0 0.4 0.3 0.7 0.7 0.7 0.4 0 0.7-0.3 0.7-0.7 0-0.4-0.3-0.7-0.7-0.7-0.4 0-0.7 0.3-0.7 0.7zm0.7 3.6c-0.4 0-0.7 0.3-0.7 0.7 0 0.4 0.3 0.7 0.7 0.7 0.4 0 0.7-0.3 0.7-0.7 0-0.4-0.3-0.7-0.7-0.7zm-1.4-0.7c0.4 0 0.7-0.4 0.7-0.8 0-0.4-0.3-0.7-0.7-0.7-0.4 0-0.7 0.3-0.7 0.7 0 0.4 0.3 0.8 0.7 0.8zm0 2.8c-0.4 0-0.7 0.3-0.7 0.7 0 0.4 0.3 0.8 0.7 0.8 0.4 0 0.7-0.4 0.7-0.8 0-0.4-0.3-0.7-0.7-0.7zm-1.4-2.1c-0.4 0-0.7 0.3-0.7 0.7 0 0.4 0.3 0.7 0.7 0.7 0.4 0 0.7-0.3 0.7-0.7 0-0.4-0.3-0.7-0.7-0.7zm0-4.3c-0.4 0-0.7 0.3-0.7 0.7 0 0.4 0.3 0.7 0.7 0.7 0.4 0 0.7-0.3 0.7-0.7 0-0.4-0.3-0.7-0.7-0.7zm-1.4-0.7c0.4 0 0.7-0.4 0.7-0.8 0-0.4-0.3-0.7-0.7-0.7-0.4 0-0.7 0.3-0.7 0.7 0 0.4 0.3 0.8 0.7 0.8zm0 4.3c0.4 0 0.7-0.4 0.7-0.8 0-0.4-0.3-0.7-0.7-0.7-0.4 0-0.7 0.3-0.7 0.7 0 0.4 0.3 0.8 0.7 0.8zm0 2.8c-0.4 0-0.7 0.3-0.7 0.7 0 0.4 0.3 0.8 0.7 0.8 0.4 0 0.7-0.4 0.7-0.8 0-0.4-0.3-0.7-0.7-0.7zm-2.1-5.7c0 0.4 0.3 0.7 0.7 0.7 0.4 0 0.7-0.3 0.7-0.7 0-0.4-0.3-0.7-0.7-0.7-0.4 0-0.7 0.3-0.7 0.7zm0.7 3.6c-0.4 0-0.7 0.3-0.7 0.7 0 0.4 0.3 0.7 0.7 0.7 0.4 0 0.7-0.3 0.7-0.7 0-0.4-0.3-0.7-0.7-0.7zm-1.4-0.7c0.4 0 0.7-0.4 0.7-0.8 0-0.4-0.3-0.7-0.7-0.7-0.4 0-0.7 0.3-0.7 0.7 0 0.4 0.3 0.8 0.7 0.8zm-1.4 2.1c0.4 0 0.7-0.3 0.7-0.7 0-0.4-0.3-0.7-0.7-0.7-0.4 0-0.7 0.3-0.7 0.7 0 0.4 0.3 0.7 0.7 0.7zm1.4 0.7c-0.4 0-0.7 0.3-0.7 0.7 0 0.4 0.3 0.8 0.7 0.8 0.4 0 0.7-0.4 0.7-0.8 0-0.4-0.3-0.7-0.7-0.7zm18.2-2.1c-0.4 0-0.7 0.3-0.7 0.7 0 0.4 0.3 0.7 0.7 0.7 0.4 0 0.7-0.3 0.7-0.7 0-0.4-0.3-0.7-0.7-0.7zm3.5 6.2q0 0 0 0 0 0.1 0 0.1c0.1 0.3-0.1 0.7-0.5 0.8-0.4 0.1-9.9 2.9-13.5 2.9-3.5 0-13.1-2.8-13.5-2.9-0.3-0.1-0.5-0.5-0.5-0.8 0.1-0.5 2.4-11.8 7.5-17.8h4.4c0 0.8 0.7 1.4 1.4 1.4h1.4c0.8 0 1.4-0.6 1.4-1.4h4.5c4.9 5.9 7.2 16.9 7.4 17.7 0 0-0.1-0.2 0 0q0 0.1 0 0.1 0 0 0-0.1z"/></svg>