<svg version="1.2" xmlns="http://www.w3.org/2000/svg" viewBox="0 0 29 42" width="29" height="42"><path class="a" d="m26.9 29.5q-1-2.5-1.6-5.2c-3.2 1.3-7.5 2.4-10.8 2.4-3.2 0-7.6-1-10.8-2.3q-0.6 2.6-1.7 5.2c6.9 4.1 18 4 24.9-0.1zm-22.4-12.4q0 2.9-0.5 5.5c5.9 2.6 15.2 2.6 21-0.1q-0.4-2.6-0.4-5.4c-3.1 1-7.2 1.6-10.1 1.6-2.8 0-6.9-0.6-10-1.6zm23.7 16q-0.2-1-0.7-2c-3.7 2.1-8.8 3.6-13 3.6-4.1 0-9.4-1.4-13.2-3.5q-0.4 0.9-0.6 1.9c-1.1 3.9-0.6 8-0.6 8.2 0.1 0.4 0.5 0.7 0.9 0.7h27.1c0.5 0 0.8-0.3 0.9-0.8 0-0.2 0.3-4.2-0.8-8.1zm-24.1-18c5.7 2.4 15.3 2.4 20.9 0q0 0 0.1-0.1c0.8-1.3 1.1-2.7 0.9-4.2-0.4-2.7-2.4-4.8-5-5.3q-0.2 0-0.3 0v-4.6c0-0.5-0.4-0.9-0.8-0.9-0.5 0-0.9 0.4-0.9 0.9v4.6c-1.1 0.1-2.1 0.5-2.9 1.2-0.3 0.3-0.8 0.5-1.3 0.5-0.7 0-1.4-0.2-1.9-0.6-0.8-0.6-1.8-1-2.8-1.1v-4.6c0-0.5-0.4-0.9-0.9-0.9-0.4 0-0.8 0.4-0.8 0.9v4.6q-0.1 0-0.3 0c-2.6 0.4-4.6 2.6-5 5.3-0.2 1.5 0.1 2.9 0.9 4.2q0.1 0.1 0.1 0.1z"/></svg>