<svg version="1.2" xmlns="http://www.w3.org/2000/svg" viewBox="0 0 37 45" width="37" height="45"><path fill-rule="evenodd" class="a" d="m15.6 34.3l18.3-7.7 3.1 6.4-12.9 6zm6.3-34.2q0.7 1 1.3 2.1c-6.7 2.3-14.1 2.3-20.8 0q0.5-1.1 1.2-2.1c5.9 1.9 12.4 1.9 18.3 0zm-10 2.7q0 0 0 0c0 0.4 0.4 0.8 0.9 0.8 0.4 0 0.8-0.4 0.8-0.8q0 0 0-0.1c0-0.4-0.4-0.8-0.9-0.7-0.4 0-0.8 0.3-0.8 0.8zm8.9 1.8q0 0 0 0zm0 0q1.5-0.4 3.1-0.9c1.6 3.9 2 8.1 1.1 12.1-1 4.4-1.5 8.9-1.4 13.4l-8.3 3.5-2.2-15.2c0-0.2-0.1-0.3-0.3-0.3-0.2 0-0.4 0.1-0.4 0.3l-4 27.6h-7.9l1.1-11.4c0.6-6 0.3-12-1.1-17.9-0.9-4-0.5-8.2 1.2-12.1q1.5 0.5 3.1 0.9l-2.6 3q-0.3 1.6-0.4 3.1l4.8-5.7q2.6 0.5 5.3 0.6v6.5c1-0.2 1.7-1.1 1.7-2.1v-4.4q2.7-0.1 5.3-0.6l4.8 5.7q-0.1-1.5-0.4-3.1z"/></svg>