<svg version="1.2" xmlns="http://www.w3.org/2000/svg" viewBox="0 0 42 32" width="42" height="32"><path class="a" d="m28.1 0c-0.5 0-0.9 0.3-1 0.8-0.4 3-3 5.2-6.1 5.2-3.1 0-5.7-2.2-6.1-5.2 0-0.5-0.4-0.8-0.9-0.8h-5.2l-0.8 30.9c0 0.3 0.1 0.6 0.3 0.8 0.1 0.2 0.4 0.3 0.7 0.3h24.1c0.2 0 0.5-0.2 0.7-0.4q0.2-0.2 0.2-0.6l-0.8-31zm-28.1 3.2v8.2c0 0.3 0.3 0.6 0.5 0.8 0.3 0.2 0.6 0.2 0.9 0.1l5.6-2.1v-10.2l-6.3 2.3c-0.3 0.1-0.7 0.5-0.7 0.9zm41.4-0.9l-6.4-2.3v10.2l5.6 2.1c0.3 0.1 0.7 0.1 1-0.1 0.2-0.2 0.4-0.5 0.4-0.8v-8.2c0-0.4-0.3-0.8-0.6-0.9z"/></svg>