<svg version="1.2" xmlns="http://www.w3.org/2000/svg" viewBox="0 0 38 36" width="38" height="36"><path class="a" d="m36.5 19.5c-0.9-6.2-4.3-13.9-4.4-14.2-0.1-0.2-0.3-0.4-0.5-0.4l-6.5-3c0.9 1.2 1.7 2.7 1.8 4.3 0.1 2.1-0.5 2.6-1 2.6-0.6 0-1.1-0.3-1.1-0.3 0 0 1.9 1.6 1.2 3.9-0.4 1.4-1.7 2.9-2.9 5.2-0.8 1.4-1.5 3.1-2.1 5.2-0.5 1.8-0.9 3.5-1.1 5v6.5c1.5 0.5 4.2 1.3 6.3 1.3 3 0 3.4-1.7 3.4-2.4 0-2.3-0.6-4.2-1.1-5.8-0.3-1.1-0.6-2.1-0.6-2.7 0.1-1 0.6-3.4 1.1-5.4 0.3 1.3 0.6 2.9 0.9 4.9 0.8 5 1 11 1 11 0 0.2 0.1 0.5 0.3 0.6q0.2 0.3 0.6 0.2l5.4-0.3c0.5 0 0.8-0.4 0.8-0.9-0.3-4.7-0.5-8.9-1.5-15.3zm-21.7-17.5c0 0.1-0.1 0.2-0.1 0.3q-0.1 0.4-0.1 0.8c-0.1 1.5-0.1 3.4 0.4 5.4 0.5 1.7 1.1 3.6 1.7 5.4 1.2 3.6 2.4 6.7 2.4 6.7 0 0 1.1-3.1 2.3-6.7 0.6-1.8 1.2-3.7 1.7-5.4 0.9-3.4 0.2-6.6-0.2-8.2-0.5-0.2-0.9-0.3-1.4-0.3h-5.1q-0.6 0-1.2 0.3c-0.1 0.4-0.3 1-0.4 1.7zm2.1 26.8c-0.7 0-1.3-0.5-1.3-1.3 0-0.7 0.6-1.3 1.3-1.3 0.5 0 0.9 0.3 1.1 0.6-0.2-1.2-0.6-2.6-1-4.1-1.6-5.6-4.3-8.1-5-10.4-0.7-2 0.8-3.6 1.1-3.8-0.2 0.1-0.5 0.2-0.9 0.3q0 0-0.1 0 0 0 0 0c-0.6 0-1.3-0.5-1.1-2.6 0.1-1.6 0.9-3.1 1.8-4.4l-6.5 3.1c-0.1 0-0.3 0.2-0.4 0.4-0.1 0.3-3.6 8-4.5 14.2-0.9 6.4-1.1 10.6-1.4 15.3 0 0.4 0.3 0.8 0.8 0.9l5.4 0.3q0.4-0.1 0.6-0.3 0.3-0.2 0.3-0.5c0-0.1 0.2-6.1 1-11 0.3-2 0.6-3.7 0.9-4.9 0.5 2 1.1 4.4 1.1 5.3 0 0.7-0.3 1.6-0.6 2.7-0.5 1.6-1.1 3.5-1.1 5.8 0 0.7 0.4 2.4 3.4 2.4 2.1 0 4.8-0.8 6.3-1.3v-6.2c-0.2 0.5-0.6 0.8-1.2 0.8z"/></svg>