<svg version="1.2" xmlns="http://www.w3.org/2000/svg" viewBox="0 0 42 42" width="42" height="42"><path class="a" d="m41.9 23.4l-8.5-13.9c-0.2 0.5-0.4 1.1-0.9 1.6-0.9 1-2.2 1.5-3.9 1.7q-0.4 0-0.8 0c-2.4 0-4.7-1-6.1-2.5-0.1-0.1-0.2-0.2-0.2-0.3q-0.4 0.8-1 1.4c-0.8 0.6-1.6 0.8-2.3 1-1 0.3-2.3 0.7-3.5 0.7-1.1 0-2.1-0.3-2.9-0.8-0.6-0.3-1-0.8-1.4-1.2-0.7-0.8-1.2-1.7-1.6-2.5-0.1 0.3-0.2 0.6-0.3 0.9l-8.4 13.9c-0.2 0.4-0.1 0.7 0.2 1 0.9 0.7 2.8 1.9 4.9 1.3 0.2 0 0.4-0.1 0.6-0.3 0.9-1.2 4.9-6.2 6.5-9.5 0.1-0.3 0.7-0.2 0.7 0.1-0.3 3.8-1.6 12.4-7.2 25.1-0.2 0.4 0.3 0.7 0.7 0.6 2-0.3 6.5-0.7 14.2 0.3 8-1 12.6-0.5 14.6-0.3 0.5 0.1 0.9-0.2 0.7-0.6-5.8-12.8-7-21.4-7.3-25.2 0-0.3 0.5-0.3 0.6-0.1 1.6 3.3 5.7 8.3 6.7 9.5 0.2 0.2 0.4 0.3 0.6 0.4 2.1 0.5 4.1-0.7 5-1.4 0.4-0.2 0.5-0.6 0.3-0.9zm-29.1-12.7c1.3 0.8 3.2 0.4 4.8-0.1 0.5-0.1 1.2-0.3 1.6-0.7 0.5-0.4 0.7-1 0.7-1.6 0.1-1.6-1-3.1-1.1-4.7 0-0.2 0-0.5 0.1-0.6 0.1-0.3 0.5-0.4 0.8-0.5 0.8-0.1 1.6-0.3 2.3-0.3 0.7 0.1 1.5 0.5 1.6 1 0.1 0.6-0.4 1-0.7 1.5-1 1.3-0.9 3.1 0.2 4.3 1.2 1.3 3.3 2 5.3 1.8 1.1-0.1 2.1-0.4 2.7-1.1 0.5-0.6 0.7-1.4 0.7-2.1 0.2-1.6 0.2-3.2-0.9-4.6-1-1.3-2.8-2.1-4.7-2.5-4.6-1.1-9.8-0.3-13.5 1.9-0.9 0.6-1.8 1.3-2.3 2.1-0.9 1.8 0.1 3.7 1.5 5.3 0.2 0.4 0.5 0.7 0.9 0.9z"/></svg>