<svg version="1.2" xmlns="http://www.w3.org/2000/svg" viewBox="0 0 19 19" width="19" height="19"><style></style><path fill-rule="evenodd" d="m13.2 8q0-2.1-1.5-3.6-1.5-1.5-3.7-1.5-2.1 0-3.6 1.5-1.5 1.5-1.5 3.6 0 2.2 1.5 3.7 1.5 1.5 3.6 1.5 2.2 0 3.7-1.5 1.5-1.5 1.5-3.7zm5.8 9.5q0 0.6-0.4 1.1-0.5 0.4-1.1 0.4-0.6 0-1-0.4l-3.9-3.9q-2 1.4-4.6 1.4-1.6 0-3.1-0.7-1.5-0.6-2.6-1.7-1-1-1.7-2.5-0.6-1.5-0.6-3.2 0-1.6 0.6-3.1 0.7-1.5 1.7-2.6 1.1-1 2.6-1.7 1.5-0.6 3.1-0.6 1.7 0 3.2 0.6 1.5 0.7 2.5 1.7 1.1 1.1 1.7 2.6 0.7 1.5 0.7 3.1 0 2.5-1.4 4.6l3.9 3.9q0.4 0.4 0.4 1z"/></svg>