<svg version="1.2" xmlns="http://www.w3.org/2000/svg" width="24" height="22"><path fill-rule="evenodd" d="M.8 0C.4 0 0 .4 0 .8c0 .5.4.8.8.8h2.5L6.1 15c.1.5.4 1 .8.9h13.4c.4.1.8-.3.8-.8 0-.4-.4-.8-.8-.8H7.6l-.4-1.7h14.1c.4 0 .7-.2.8-.6L24 3.8c.1-.5-.3-1-.8-1h-18L4.8.7C4.7.3 4.4 0 4 0zm4.8 4.4h4.8v2.5H6.1zm6.4 0h3.7v2.5H12zm5.4 0h4.8l-.5 2.4h-4.3zm-11 4.2h4V11H6.9zm5.6 0h3.8v2.5H12zm5.4 0h3.9l-.6 2.5h-3.3zm-7.8 8c-1.4 0-2.6 1.2-2.6 2.7 0 1.5 1.2 2.8 2.6 2.8 1.5 0 2.7-1.3 2.7-2.8 0-1.5-1.2-2.7-2.7-2.7zm8 0c-1.4 0-2.6 1.2-2.6 2.7 0 1.5 1.2 2.8 2.6 2.8 1.5 0 2.7-1.3 2.7-2.8 0-1.5-1.2-2.7-2.7-2.7zm-8 1.6c.6 0 1.1.5 1.1 1.1 0 .6-.5 1.1-1.1 1.1-.6 0-1-.5-1-1.1 0-.6.4-1.1 1-1.1zm8 0c.6 0 1.1.5 1.1 1.1 0 .6-.5 1.1-1.1 1.1-.6 0-1-.5-1-1.1 0-.6.4-1.1 1-1.1z"/></svg>