<svg version="1.2" xmlns="http://www.w3.org/2000/svg" width="29" height="42"><path class="a" d="M26.9 29.5q-1-2.5-1.6-5.2c-3.2 1.3-7.5 2.4-10.8 2.4-3.2 0-7.6-1-10.8-2.3Q3.1 27 2 29.6c6.9 4.1 18 4 24.9-.1zM4.5 17.1q0 2.9-.5 5.5c5.9 2.6 15.2 2.6 21-.1q-.4-2.6-.4-5.4c-3.1 1-7.2 1.6-10.1 1.6-2.8 0-6.9-.6-10-1.6zm23.7 16q-.2-1-.7-2c-3.7 2.1-8.8 3.6-13 3.6-4.1 0-9.4-1.4-13.2-3.5q-.4.9-.6 1.9c-1.1 3.9-.6 8-.6 8.2.1.4.5.7.9.7h27.1c.5 0 .8-.3.9-.8 0-.2.3-4.2-.8-8.1zm-24.1-18c5.7 2.4 15.3 2.4 20.9 0l.1-.1c.8-1.3 1.1-2.7.9-4.2-.4-2.7-2.4-4.8-5-5.3h-.3V.9c0-.5-.4-.9-.8-.9-.5 0-.9.4-.9.9v4.6c-1.1.1-2.1.5-2.9 1.2-.3.3-.8.5-1.3.5-.7 0-1.4-.2-1.9-.6-.8-.6-1.8-1-2.8-1.1V.9c0-.5-.4-.9-.9-.9-.4 0-.8.4-.8.9v4.6h-.3c-2.6.4-4.6 2.6-5 5.3-.2 1.5.1 2.9.9 4.2l.1.1z"/></svg>