<svg version="1.2" xmlns="http://www.w3.org/2000/svg" width="38" height="36"><path class="a" d="M36.5 19.5c-.9-6.2-4.3-13.9-4.4-14.2-.1-.2-.3-.4-.5-.4l-6.5-3c.9 1.2 1.7 2.7 1.8 4.3.1 2.1-.5 2.6-1 2.6-.6 0-1.1-.3-1.1-.3s1.9 1.6 1.2 3.9c-.4 1.4-1.7 2.9-2.9 5.2-.8 1.4-1.5 3.1-2.1 5.2-.5 1.8-.9 3.5-1.1 5v6.5c1.5.5 4.2 1.3 6.3 1.3 3 0 3.4-1.7 3.4-2.4 0-2.3-.6-4.2-1.1-5.8-.3-1.1-.6-2.1-.6-2.7.1-1 .6-3.4 1.1-5.4.3 1.3.6 2.9.9 4.9.8 5 1 11 1 11 0 .2.1.5.3.6q.2.3.6.2l5.4-.3c.5 0 .8-.4.8-.9-.3-4.7-.5-8.9-1.5-15.3zM14.8 2c0 .1-.1.2-.1.3q-.1.4-.1.8c-.1 1.5-.1 3.4.4 5.4.5 1.7 1.1 3.6 1.7 5.4 1.2 3.6 2.4 6.7 2.4 6.7s1.1-3.1 2.3-6.7c.6-1.8 1.2-3.7 1.7-5.4.9-3.4.2-6.6-.2-8.2-.5-.2-.9-.3-1.4-.3h-5.1q-.6 0-1.2.3c-.1.4-.3 1-.4 1.7zm2.1 26.8c-.7 0-1.3-.5-1.3-1.3 0-.7.6-1.3 1.3-1.3.5 0 .9.3 1.1.6-.2-1.2-.6-2.6-1-4.1-1.6-5.6-4.3-8.1-5-10.4-.7-2 .8-3.6 1.1-3.8-.2.1-.5.2-.9.3h-.1c-.6 0-1.3-.5-1.1-2.6.1-1.6.9-3.1 1.8-4.4L6.3 4.9c-.1 0-.3.2-.4.4-.1.3-3.6 8-4.5 14.2C.5 25.9.3 30.1 0 34.8c0 .4.3.8.8.9l5.4.3q.4-.1.6-.3.3-.2.3-.5c0-.1.2-6.1 1-11 .3-2 .6-3.7.9-4.9.5 2 1.1 4.4 1.1 5.3 0 .7-.3 1.6-.6 2.7-.5 1.6-1.1 3.5-1.1 5.8 0 .7.4 2.4 3.4 2.4 2.1 0 4.8-.8 6.3-1.3V28c-.2.5-.6.8-1.2.8z"/></svg>