<svg version="1.2" xmlns="http://www.w3.org/2000/svg" width="42" height="42"><path class="a" d="M41.9 23.4 33.4 9.5c-.2.5-.4 1.1-.9 1.6-.9 1-2.2 1.5-3.9 1.7h-.8c-2.4 0-4.7-1-6.1-2.5-.1-.1-.2-.2-.2-.3q-.4.8-1 1.4c-.8.6-1.6.8-2.3 1-1 .3-2.3.7-3.5.7-1.1 0-2.1-.3-2.9-.8-.6-.3-1-.8-1.4-1.2-.7-.8-1.2-1.7-1.6-2.5l-.3.9L.1 23.4c-.2.4-.1.7.2 1 .9.7 2.8 1.9 4.9 1.3.2 0 .4-.1.6-.3.9-1.2 4.9-6.2 6.5-9.5.1-.3.7-.2.7.1-.3 3.8-1.6 12.4-7.2 25.1-.2.4.3.7.7.6 2-.3 6.5-.7 14.2.3 8-1 12.6-.5 14.6-.3.5.1.9-.2.7-.6-5.8-12.8-7-21.4-7.3-25.2 0-.3.5-.3.6-.1 1.6 3.3 5.7 8.3 6.7 9.5.2.2.4.3.6.4 2.1.5 4.1-.7 5-1.4.4-.2.5-.6.3-.9zM12.8 10.7c1.3.8 3.2.4 4.8-.1.5-.1 1.2-.3 1.6-.7.5-.4.7-1 .7-1.6.1-1.6-1-3.1-1.1-4.7 0-.2 0-.5.1-.6.1-.3.5-.4.8-.5.8-.1 1.6-.3 2.3-.3.7.1 1.5.5 1.6 1 .1.6-.4 1-.7 1.5-1 1.3-.9 3.1.2 4.3 1.2 1.3 3.3 2 5.3 1.8 1.1-.1 2.1-.4 2.7-1.1.5-.6.7-1.4.7-2.1.2-1.6.2-3.2-.9-4.6-1-1.3-2.8-2.1-4.7-2.5-4.6-1.1-9.8-.3-13.5 1.9-.9.6-1.8 1.3-2.3 2.1-.9 1.8.1 3.7 1.5 5.3.2.4.5.7.9.9z"/></svg>