<svg version="1.2" xmlns="http://www.w3.org/2000/svg" width="37" height="45"><path fill-rule="evenodd" class="a" d="m15.6 34.3 18.3-7.7L37 33l-12.9 6zM21.9.1q.7 1 1.3 2.1c-6.7 2.3-14.1 2.3-20.8 0Q2.9 1.1 3.6.1C9.5 2 16 2 21.9.1zm-10 2.7c0 .4.4.8.9.8.4 0 .8-.4.8-.8v-.1c0-.4-.4-.8-.9-.7-.4 0-.8.3-.8.8zm8.9 1.8zm0 0q1.5-.4 3.1-.9c1.6 3.9 2 8.1 1.1 12.1-1 4.4-1.5 8.9-1.4 13.4l-8.3 3.5-2.2-15.2c0-.2-.1-.3-.3-.3-.2 0-.4.1-.4.3l-4 27.6H.5l1.1-11.4c.6-6 .3-12-1.1-17.9-.9-4-.5-8.2 1.2-12.1q1.5.5 3.1.9l-2.6 3q-.3 1.6-.4 3.1L6.6 5q2.6.5 5.3.6v6.5c1-.2 1.7-1.1 1.7-2.1V5.6q2.7-.1 5.3-.6l4.8 5.7q-.1-1.5-.4-3.1z"/></svg>