<svg version="1.2" xmlns="http://www.w3.org/2000/svg" width="28" height="43"><path fill-rule="evenodd" class="a" d="M20.6 3.2c1.8.4 3.2 1.3 3.2 3.2 0 .9-.9 2-1.7 2.8l-.7-.5q-.6-.4-1.4-.6zM8.5 18.6H12V20H8.5zm.8-15.7h2c.3 0 .7-.4.7-.8V.7c0-.4.3-.7.7-.7h2.8c.3 0 .7.3.7.7v1.4c0 .4.3.8.7.8.7 0 1.5 0 2.3.1l-.5 4.9q-.6 0-1.2.1c-1.3.3-2.5 1.1-3.4 2.2-1-1.1-2.2-1.9-3.5-2.2q-.6-.1-1.1-.1zm8.5 6.4c1.1-.2 2.1 0 2.8.5l1.1.8c-.2 3.3-.9 5.4-1.5 6.5h-4.1c0-.8-.6-1.4-1.4-1.4h-1.3c-.8 0-1.5.6-1.5 1.4H7.8c-.5-1.1-1.3-3.2-1.4-6.6l1-.7c.8-.5 1.8-.7 2.9-.5 1.2.3 2.4 1.2 3.1 2.5.3.4 1 .4 1.2 0 .8-1.3 1.9-2.2 3.2-2.5zm-3.1 12.1h-1.4l.1-4.3h1.3zm1.4-2.8h3.5V20h-3.5zM5.9 9.2c-.8-.8-1.7-2-1.7-2.8 0-2 1.7-2.9 3.7-3.3L8.1 8q-.8.3-1.4.7zm20 27.4c.4 0 .7-.4.7-.8s-.3-.7-.7-.7c-.4 0-.7.3-.7.7 0 .4.3.8.7.8zm-1.4 2.1c.4 0 .7-.3.7-.7 0-.4-.3-.7-.7-.7-.4 0-.7.3-.7.7 0 .4.3.7.7.7zm-1.4 2.2c.4 0 .7-.4.7-.8s-.3-.7-.7-.7c-.4 0-.7.3-.7.7 0 .4.3.8.7.8zm-1.4-2.2c.4 0 .7-.3.7-.7 0-.4-.3-.7-.7-.7-.4 0-.7.3-.7.7 0 .4.3.7.7.7zm-1.4 2.2c.4 0 .7-.4.7-.8s-.3-.7-.7-.7c-.4 0-.7.3-.7.7 0 .4.3.8.7.8zm-1.4-2.2c.4 0 .7-.3.7-.7 0-.4-.3-.7-.7-.7-.4 0-.7.3-.7.7 0 .4.3.7.7.7zm-1.4 2.2c.4 0 .7-.4.7-.8s-.3-.7-.7-.7c-.4 0-.7.3-.7.7 0 .4.3.8.7.8zm-1.4-2.2c.4 0 .7-.3.7-.7 0-.4-.3-.7-.7-.7-.4 0-.7.3-.7.7 0 .4.3.7.7.7zm-1.4 2.2c.4 0 .7-.4.7-.8s-.3-.7-.7-.7c-.4 0-.7.3-.7.7 0 .4.3.8.7.8zm-1.4-2.2c.4 0 .7-.3.7-.7 0-.4-.3-.7-.7-.7-.4 0-.7.3-.7.7 0 .4.3.7.7.7zm-1.4 2.2c.4 0 .7-.4.7-.8s-.3-.7-.7-.7c-.4 0-.7.3-.7.7 0 .4.3.8.7.8zm-1.4-2.2c.4 0 .7-.3.7-.7 0-.4-.3-.7-.7-.7-.4 0-.7.3-.7.7 0 .4.3.7.7.7zm-1.4 2.2c.4 0 .7-.4.7-.8s-.3-.7-.7-.7c-.4 0-.7.3-.7.7 0 .4.3.8.7.8zm-1.4-2.2c.4 0 .7-.3.7-.7 0-.4-.3-.7-.7-.7-.4 0-.7.3-.7.7 0 .4.3.7.7.7zm-1.4 2.2c.4 0 .7-.4.7-.8s-.3-.7-.7-.7c-.4 0-.7.3-.7.7 0 .4.3.8.7.8zm-1.4-2.2c.4 0 .7-.3.7-.7 0-.4-.3-.7-.7-.7-.4 0-.7.3-.7.7 0 .4.3.7.7.7zm-1.4-2.1c.4 0 .7-.4.7-.8s-.3-.7-.7-.7c-.4 0-.7.3-.7.7 0 .4.3.8.7.8zm-1.4 2.1c.4 0 .7-.3.7-.7 0-.4-.3-.7-.7-.7-.4 0-.7.3-.7.7 0 .4.3.7.7.7zm1.4-7.9c-.4 0-.7.3-.7.7 0 .4.3.8.7.8.4 0 .7-.4.7-.8s-.3-.7-.7-.7zm1.4-2.1c-.4 0-.7.3-.7.7 0 .4.3.7.7.7.4 0 .7-.3.7-.7 0-.4-.3-.7-.7-.7zm1.4-2.2c-.4 0-.7.3-.7.7 0 .4.3.8.7.8.4 0 .7-.4.7-.8s-.3-.7-.7-.7zm1.4-2.1c-.4 0-.7.3-.7.7 0 .4.3.7.7.7.4 0 .7-.3.7-.7 0-.4-.3-.7-.7-.7zm1.4-2.2c-.4 0-.7.3-.7.7 0 .4.3.8.7.8.4 0 .7-.4.7-.8s-.3-.7-.7-.7zm1.4 2.2c-.4 0-.7.3-.7.7 0 .4.3.7.7.7.4 0 .7-.3.7-.7 0-.4-.3-.7-.7-.7zm1.4 2.1c-.4 0-.7.3-.7.7 0 .4.3.8.7.8.4 0 .7-.4.7-.8s-.3-.7-.7-.7zm1.4-2.1c-.4 0-.7.3-.7.7 0 .4.3.7.7.7.4 0 .7-.3.7-.7 0-.4-.3-.7-.7-.7zm1.4 2.1c-.4 0-.7.3-.7.7 0 .4.3.8.7.8.4 0 .7-.4.7-.8s-.3-.7-.7-.7zm1.4-2.1c-.4 0-.7.3-.7.7 0 .4.3.7.7.7.4 0 .7-.3.7-.7 0-.4-.3-.7-.7-.7zm1.4-2.2c-.4 0-.7.3-.7.7 0 .4.3.8.7.8.4 0 .7-.4.7-.8s-.3-.7-.7-.7zm1.4 2.2c-.4 0-.7.3-.7.7 0 .4.3.7.7.7.4 0 .7-.3.7-.7 0-.4-.3-.7-.7-.7zm1.4-2.2c-.4 0-.7.3-.7.7 0 .4.3.8.7.8.4 0 .7-.4.7-.8s-.3-.7-.7-.7zm1.4 2.2c-.4 0-.7.3-.7.7 0 .4.3.7.7.7.4 0 .7-.3.7-.7 0-.4-.3-.7-.7-.7zm1.4 2.1c-.4 0-.7.3-.7.7 0 .4.3.8.7.8.4 0 .7-.4.7-.8s-.3-.7-.7-.7zm0 5.8c.4 0 .7-.4.7-.8s-.3-.7-.7-.7c-.4 0-.7.3-.7.7 0 .4.3.8.7.8zm0 2.8c-.4 0-.7.3-.7.7 0 .4.3.8.7.8.4 0 .7-.4.7-.8s-.3-.7-.7-.7zM21.7 33c-.4 0-.7.3-.7.7 0 .4.3.7.7.7.4 0 .7-.3.7-.7 0-.4-.3-.7-.7-.7zm0-4.3c-.4 0-.7.3-.7.7 0 .4.3.7.7.7.4 0 .7-.3.7-.7 0-.4-.3-.7-.7-.7zm-1.4-.7c.4 0 .7-.4.7-.8s-.3-.7-.7-.7c-.4 0-.7.3-.7.7 0 .4.3.8.7.8zm0 4.3c.4 0 .7-.4.7-.8s-.3-.7-.7-.7c-.4 0-.7.3-.7.7 0 .4.3.8.7.8zm0 2.8c-.4 0-.7.3-.7.7 0 .4.3.8.7.8.4 0 .7-.4.7-.8s-.3-.7-.7-.7zM18.9 33c-.4 0-.7.3-.7.7 0 .4.3.7.7.7.4 0 .7-.3.7-.7 0-.4-.3-.7-.7-.7zm0-4.3c-.4 0-.7.3-.7.7 0 .4.3.7.7.7.4 0 .7-.3.7-.7 0-.4-.3-.7-.7-.7zm-1.4-.7c.4 0 .7-.4.7-.8s-.3-.7-.7-.7c-.4 0-.7.3-.7.7 0 .4.3.8.7.8zm0 4.3c.4 0 .7-.4.7-.8s-.3-.7-.7-.7c-.4 0-.7.3-.7.7 0 .4.3.8.7.8zm0 2.8c-.4 0-.7.3-.7.7 0 .4.3.8.7.8.4 0 .7-.4.7-.8s-.3-.7-.7-.7zm-2.1-5.7c0 .4.3.7.7.7.4 0 .7-.3.7-.7 0-.4-.3-.7-.7-.7-.4 0-.7.3-.7.7zm.7 3.6c-.4 0-.7.3-.7.7 0 .4.3.7.7.7.4 0 .7-.3.7-.7 0-.4-.3-.7-.7-.7zm-1.4-.7c.4 0 .7-.4.7-.8s-.3-.7-.7-.7c-.4 0-.7.3-.7.7 0 .4.3.8.7.8zm0 2.8c-.4 0-.7.3-.7.7 0 .4.3.8.7.8.4 0 .7-.4.7-.8s-.3-.7-.7-.7zm-2.1-5.7c0 .4.3.7.7.7.4 0 .7-.3.7-.7 0-.4-.3-.7-.7-.7-.4 0-.7.3-.7.7zm.7 3.6c-.4 0-.7.3-.7.7 0 .4.3.7.7.7.4 0 .7-.3.7-.7 0-.4-.3-.7-.7-.7zm-1.4-.7c.4 0 .7-.4.7-.8s-.3-.7-.7-.7c-.4 0-.7.3-.7.7 0 .4.3.8.7.8zm0 2.8c-.4 0-.7.3-.7.7 0 .4.3.8.7.8.4 0 .7-.4.7-.8s-.3-.7-.7-.7zM10.5 33c-.4 0-.7.3-.7.7 0 .4.3.7.7.7.4 0 .7-.3.7-.7 0-.4-.3-.7-.7-.7zm0-4.3c-.4 0-.7.3-.7.7 0 .4.3.7.7.7.4 0 .7-.3.7-.7 0-.4-.3-.7-.7-.7zM9.1 28c.4 0 .7-.4.7-.8s-.3-.7-.7-.7c-.4 0-.7.3-.7.7 0 .4.3.8.7.8zm0 4.3c.4 0 .7-.4.7-.8s-.3-.7-.7-.7c-.4 0-.7.3-.7.7 0 .4.3.8.7.8zm0 2.8c-.4 0-.7.3-.7.7 0 .4.3.8.7.8.4 0 .7-.4.7-.8s-.3-.7-.7-.7zM7 29.4c0 .4.3.7.7.7.4 0 .7-.3.7-.7 0-.4-.3-.7-.7-.7-.4 0-.7.3-.7.7zm.7 3.6c-.4 0-.7.3-.7.7 0 .4.3.7.7.7.4 0 .7-.3.7-.7 0-.4-.3-.7-.7-.7zm-1.4-.7c.4 0 .7-.4.7-.8s-.3-.7-.7-.7c-.4 0-.7.3-.7.7 0 .4.3.8.7.8zm-1.4 2.1c.4 0 .7-.3.7-.7 0-.4-.3-.7-.7-.7-.4 0-.7.3-.7.7 0 .4.3.7.7.7zm1.4.7c-.4 0-.7.3-.7.7 0 .4.3.8.7.8.4 0 .7-.4.7-.8s-.3-.7-.7-.7zM24.5 33c-.4 0-.7.3-.7.7 0 .4.3.7.7.7.4 0 .7-.3.7-.7 0-.4-.3-.7-.7-.7zm3.5 6.2v.1c.1.3-.1.7-.5.8-.4.1-9.9 2.9-13.5 2.9C10.5 43 .9 40.2.5 40.1c-.3-.1-.5-.5-.5-.8.1-.5 2.4-11.8 7.5-17.8h4.4c0 .8.7 1.4 1.4 1.4h1.4c.8 0 1.4-.6 1.4-1.4h4.5c4.9 5.9 7.2 16.9 7.4 17.7 0 0-.1-.2 0 0v.1-.1z"/></svg>