<?xml version="1.0" encoding="utf-8"?><svg viewBox="0 0 42 45" xmlns="http://www.w3.org/2000/svg" xmlns:xlink="http://www.w3.org/1999/xlink"><style>:root>svg{display:none}:root>svg:target{display:block}</style><svg version="1.2" viewBox="0 0 10 17" id="arrow-light" xmlns="http://www.w3.org/2000/svg"><path d="M10 10H0l5.5 7zM6 0H4v11.1h2z" style="fill:#fff"/></svg><svg version="1.2" viewBox="0 0 37 10" id="arrow-next" xmlns="http://www.w3.org/2000/svg"><path d="M30 0v10l7-5.5zM0 4v2h31.1V4z"/></svg><svg version="1.2" viewBox="0 0 37 10" id="arrow-prev" xmlns="http://www.w3.org/2000/svg"><path d="M7 0v10L0 4.5zm30 4v2H5.9V4z"/></svg><svg version="1.2" viewBox="0 0 24 22" id="basket" xmlns="http://www.w3.org/2000/svg"><path fill-rule="evenodd" d="M.8 0C.4 0 0 .4 0 .8c0 .5.4.8.8.8h2.5L6.1 15c.1.5.4 1 .8.9h13.4c.4.1.8-.3.8-.8 0-.4-.4-.8-.8-.8H7.6l-.4-1.7h14.1c.4 0 .7-.2.8-.6L24 3.8c.1-.5-.3-1-.8-1h-18L4.8.7C4.7.3 4.4 0 4 0zm4.8 4.4h4.8v2.5H6.1zm6.4 0h3.7v2.5H12zm5.4 0h4.8l-.5 2.4h-4.3zm-11 4.2h4V11H6.9zm5.6 0h3.8v2.5H12zm5.4 0h3.9l-.6 2.5h-3.3zm-7.8 8c-1.4 0-2.6 1.2-2.6 2.7 0 1.5 1.2 2.8 2.6 2.8 1.5 0 2.7-1.3 2.7-2.8 0-1.5-1.2-2.7-2.7-2.7zm8 0c-1.4 0-2.6 1.2-2.6 2.7 0 1.5 1.2 2.8 2.6 2.8 1.5 0 2.7-1.3 2.7-2.8 0-1.5-1.2-2.7-2.7-2.7zm-8 1.6c.6 0 1.1.5 1.1 1.1 0 .6-.5 1.1-1.1 1.1-.6 0-1-.5-1-1.1 0-.6.4-1.1 1-1.1zm8 0c.6 0 1.1.5 1.1 1.1 0 .6-.5 1.1-1.1 1.1-.6 0-1-.5-1-1.1 0-.6.4-1.1 1-1.1z"/></svg><svg version="1.2" viewBox="0 0 28 43" id="category-icon_1" xmlns="http://www.w3.org/2000/svg"><path fill-rule="evenodd" class="ea" d="M20.6 3.2c1.8.4 3.2 1.3 3.2 3.2 0 .9-.9 2-1.7 2.8l-.7-.5q-.6-.4-1.4-.6zM8.5 18.6H12V20H8.5zm.8-15.7h2c.3 0 .7-.4.7-.8V.7c0-.4.3-.7.7-.7h2.8c.3 0 .7.3.7.7v1.4c0 .4.3.8.7.8.7 0 1.5 0 2.3.1l-.5 4.9q-.6 0-1.2.1c-1.3.3-2.5 1.1-3.4 2.2-1-1.1-2.2-1.9-3.5-2.2q-.6-.1-1.1-.1zm8.5 6.4c1.1-.2 2.1 0 2.8.5l1.1.8c-.2 3.3-.9 5.4-1.5 6.5h-4.1c0-.8-.6-1.4-1.4-1.4h-1.3c-.8 0-1.5.6-1.5 1.4H7.8c-.5-1.1-1.3-3.2-1.4-6.6l1-.7c.8-.5 1.8-.7 2.9-.5 1.2.3 2.4 1.2 3.1 2.5.3.4 1 .4 1.2 0 .8-1.3 1.9-2.2 3.2-2.5zm-3.1 12.1h-1.4l.1-4.3h1.3zm1.4-2.8h3.5V20h-3.5zM5.9 9.2c-.8-.8-1.7-2-1.7-2.8 0-2 1.7-2.9 3.7-3.3L8.1 8q-.8.3-1.4.7zm20 27.4c.4 0 .7-.4.7-.8s-.3-.7-.7-.7c-.4 0-.7.3-.7.7 0 .4.3.8.7.8zm-1.4 2.1c.4 0 .7-.3.7-.7 0-.4-.3-.7-.7-.7-.4 0-.7.3-.7.7 0 .4.3.7.7.7zm-1.4 2.2c.4 0 .7-.4.7-.8s-.3-.7-.7-.7c-.4 0-.7.3-.7.7 0 .4.3.8.7.8zm-1.4-2.2c.4 0 .7-.3.7-.7 0-.4-.3-.7-.7-.7-.4 0-.7.3-.7.7 0 .4.3.7.7.7zm-1.4 2.2c.4 0 .7-.4.7-.8s-.3-.7-.7-.7c-.4 0-.7.3-.7.7 0 .4.3.8.7.8zm-1.4-2.2c.4 0 .7-.3.7-.7 0-.4-.3-.7-.7-.7-.4 0-.7.3-.7.7 0 .4.3.7.7.7zm-1.4 2.2c.4 0 .7-.4.7-.8s-.3-.7-.7-.7c-.4 0-.7.3-.7.7 0 .4.3.8.7.8zm-1.4-2.2c.4 0 .7-.3.7-.7 0-.4-.3-.7-.7-.7-.4 0-.7.3-.7.7 0 .4.3.7.7.7zm-1.4 2.2c.4 0 .7-.4.7-.8s-.3-.7-.7-.7c-.4 0-.7.3-.7.7 0 .4.3.8.7.8zm-1.4-2.2c.4 0 .7-.3.7-.7 0-.4-.3-.7-.7-.7-.4 0-.7.3-.7.7 0 .4.3.7.7.7zm-1.4 2.2c.4 0 .7-.4.7-.8s-.3-.7-.7-.7c-.4 0-.7.3-.7.7 0 .4.3.8.7.8zm-1.4-2.2c.4 0 .7-.3.7-.7 0-.4-.3-.7-.7-.7-.4 0-.7.3-.7.7 0 .4.3.7.7.7zm-1.4 2.2c.4 0 .7-.4.7-.8s-.3-.7-.7-.7c-.4 0-.7.3-.7.7 0 .4.3.8.7.8zm-1.4-2.2c.4 0 .7-.3.7-.7 0-.4-.3-.7-.7-.7-.4 0-.7.3-.7.7 0 .4.3.7.7.7zm-1.4 2.2c.4 0 .7-.4.7-.8s-.3-.7-.7-.7c-.4 0-.7.3-.7.7 0 .4.3.8.7.8zm-1.4-2.2c.4 0 .7-.3.7-.7 0-.4-.3-.7-.7-.7-.4 0-.7.3-.7.7 0 .4.3.7.7.7zm-1.4-2.1c.4 0 .7-.4.7-.8s-.3-.7-.7-.7c-.4 0-.7.3-.7.7 0 .4.3.8.7.8zm-1.4 2.1c.4 0 .7-.3.7-.7 0-.4-.3-.7-.7-.7-.4 0-.7.3-.7.7 0 .4.3.7.7.7zm1.4-7.9c-.4 0-.7.3-.7.7 0 .4.3.8.7.8.4 0 .7-.4.7-.8s-.3-.7-.7-.7zm1.4-2.1c-.4 0-.7.3-.7.7 0 .4.3.7.7.7.4 0 .7-.3.7-.7 0-.4-.3-.7-.7-.7zm1.4-2.2c-.4 0-.7.3-.7.7 0 .4.3.8.7.8.4 0 .7-.4.7-.8s-.3-.7-.7-.7zm1.4-2.1c-.4 0-.7.3-.7.7 0 .4.3.7.7.7.4 0 .7-.3.7-.7 0-.4-.3-.7-.7-.7zm1.4-2.2c-.4 0-.7.3-.7.7 0 .4.3.8.7.8.4 0 .7-.4.7-.8s-.3-.7-.7-.7zm1.4 2.2c-.4 0-.7.3-.7.7 0 .4.3.7.7.7.4 0 .7-.3.7-.7 0-.4-.3-.7-.7-.7zm1.4 2.1c-.4 0-.7.3-.7.7 0 .4.3.8.7.8.4 0 .7-.4.7-.8s-.3-.7-.7-.7zm1.4-2.1c-.4 0-.7.3-.7.7 0 .4.3.7.7.7.4 0 .7-.3.7-.7 0-.4-.3-.7-.7-.7zm1.4 2.1c-.4 0-.7.3-.7.7 0 .4.3.8.7.8.4 0 .7-.4.7-.8s-.3-.7-.7-.7zm1.4-2.1c-.4 0-.7.3-.7.7 0 .4.3.7.7.7.4 0 .7-.3.7-.7 0-.4-.3-.7-.7-.7zm1.4-2.2c-.4 0-.7.3-.7.7 0 .4.3.8.7.8.4 0 .7-.4.7-.8s-.3-.7-.7-.7zm1.4 2.2c-.4 0-.7.3-.7.7 0 .4.3.7.7.7.4 0 .7-.3.7-.7 0-.4-.3-.7-.7-.7zm1.4-2.2c-.4 0-.7.3-.7.7 0 .4.3.8.7.8.4 0 .7-.4.7-.8s-.3-.7-.7-.7zm1.4 2.2c-.4 0-.7.3-.7.7 0 .4.3.7.7.7.4 0 .7-.3.7-.7 0-.4-.3-.7-.7-.7zm1.4 2.1c-.4 0-.7.3-.7.7 0 .4.3.8.7.8.4 0 .7-.4.7-.8s-.3-.7-.7-.7zm0 5.8c.4 0 .7-.4.7-.8s-.3-.7-.7-.7c-.4 0-.7.3-.7.7 0 .4.3.8.7.8zm0 2.8c-.4 0-.7.3-.7.7 0 .4.3.8.7.8.4 0 .7-.4.7-.8s-.3-.7-.7-.7zM21.7 33c-.4 0-.7.3-.7.7 0 .4.3.7.7.7.4 0 .7-.3.7-.7 0-.4-.3-.7-.7-.7zm0-4.3c-.4 0-.7.3-.7.7 0 .4.3.7.7.7.4 0 .7-.3.7-.7 0-.4-.3-.7-.7-.7zm-1.4-.7c.4 0 .7-.4.7-.8s-.3-.7-.7-.7c-.4 0-.7.3-.7.7 0 .4.3.8.7.8zm0 4.3c.4 0 .7-.4.7-.8s-.3-.7-.7-.7c-.4 0-.7.3-.7.7 0 .4.3.8.7.8zm0 2.8c-.4 0-.7.3-.7.7 0 .4.3.8.7.8.4 0 .7-.4.7-.8s-.3-.7-.7-.7zM18.9 33c-.4 0-.7.3-.7.7 0 .4.3.7.7.7.4 0 .7-.3.7-.7 0-.4-.3-.7-.7-.7zm0-4.3c-.4 0-.7.3-.7.7 0 .4.3.7.7.7.4 0 .7-.3.7-.7 0-.4-.3-.7-.7-.7zm-1.4-.7c.4 0 .7-.4.7-.8s-.3-.7-.7-.7c-.4 0-.7.3-.7.7 0 .4.3.8.7.8zm0 4.3c.4 0 .7-.4.7-.8s-.3-.7-.7-.7c-.4 0-.7.3-.7.7 0 .4.3.8.7.8zm0 2.8c-.4 0-.7.3-.7.7 0 .4.3.8.7.8.4 0 .7-.4.7-.8s-.3-.7-.7-.7zm-2.1-5.7c0 .4.3.7.7.7.4 0 .7-.3.7-.7 0-.4-.3-.7-.7-.7-.4 0-.7.3-.7.7zm.7 3.6c-.4 0-.7.3-.7.7 0 .4.3.7.7.7.4 0 .7-.3.7-.7 0-.4-.3-.7-.7-.7zm-1.4-.7c.4 0 .7-.4.7-.8s-.3-.7-.7-.7c-.4 0-.7.3-.7.7 0 .4.3.8.7.8zm0 2.8c-.4 0-.7.3-.7.7 0 .4.3.8.7.8.4 0 .7-.4.7-.8s-.3-.7-.7-.7zm-2.1-5.7c0 .4.3.7.7.7.4 0 .7-.3.7-.7 0-.4-.3-.7-.7-.7-.4 0-.7.3-.7.7zm.7 3.6c-.4 0-.7.3-.7.7 0 .4.3.7.7.7.4 0 .7-.3.7-.7 0-.4-.3-.7-.7-.7zm-1.4-.7c.4 0 .7-.4.7-.8s-.3-.7-.7-.7c-.4 0-.7.3-.7.7 0 .4.3.8.7.8zm0 2.8c-.4 0-.7.3-.7.7 0 .4.3.8.7.8.4 0 .7-.4.7-.8s-.3-.7-.7-.7zM10.5 33c-.4 0-.7.3-.7.7 0 .4.3.7.7.7.4 0 .7-.3.7-.7 0-.4-.3-.7-.7-.7zm0-4.3c-.4 0-.7.3-.7.7 0 .4.3.7.7.7.4 0 .7-.3.7-.7 0-.4-.3-.7-.7-.7zM9.1 28c.4 0 .7-.4.7-.8s-.3-.7-.7-.7c-.4 0-.7.3-.7.7 0 .4.3.8.7.8zm0 4.3c.4 0 .7-.4.7-.8s-.3-.7-.7-.7c-.4 0-.7.3-.7.7 0 .4.3.8.7.8zm0 2.8c-.4 0-.7.3-.7.7 0 .4.3.8.7.8.4 0 .7-.4.7-.8s-.3-.7-.7-.7zM7 29.4c0 .4.3.7.7.7.4 0 .7-.3.7-.7 0-.4-.3-.7-.7-.7-.4 0-.7.3-.7.7zm.7 3.6c-.4 0-.7.3-.7.7 0 .4.3.7.7.7.4 0 .7-.3.7-.7 0-.4-.3-.7-.7-.7zm-1.4-.7c.4 0 .7-.4.7-.8s-.3-.7-.7-.7c-.4 0-.7.3-.7.7 0 .4.3.8.7.8zm-1.4 2.1c.4 0 .7-.3.7-.7 0-.4-.3-.7-.7-.7-.4 0-.7.3-.7.7 0 .4.3.7.7.7zm1.4.7c-.4 0-.7.3-.7.7 0 .4.3.8.7.8.4 0 .7-.4.7-.8s-.3-.7-.7-.7zM24.5 33c-.4 0-.7.3-.7.7 0 .4.3.7.7.7.4 0 .7-.3.7-.7 0-.4-.3-.7-.7-.7zm3.5 6.2v.1c.1.3-.1.7-.5.8-.4.1-9.9 2.9-13.5 2.9C10.5 43 .9 40.2.5 40.1c-.3-.1-.5-.5-.5-.8.1-.5 2.4-11.8 7.5-17.8h4.4c0 .8.7 1.4 1.4 1.4h1.4c.8 0 1.4-.6 1.4-1.4h4.5c4.9 5.9 7.2 16.9 7.4 17.7 0 0-.1-.2 0 0v.1-.1z"/></svg><svg version="1.2" viewBox="0 0 42 42" id="category-icon_2" xmlns="http://www.w3.org/2000/svg"><path class="fa" d="M41.9 23.4 33.4 9.5c-.2.5-.4 1.1-.9 1.6-.9 1-2.2 1.5-3.9 1.7h-.8c-2.4 0-4.7-1-6.1-2.5-.1-.1-.2-.2-.2-.3q-.4.8-1 1.4c-.8.6-1.6.8-2.3 1-1 .3-2.3.7-3.5.7-1.1 0-2.1-.3-2.9-.8-.6-.3-1-.8-1.4-1.2-.7-.8-1.2-1.7-1.6-2.5l-.3.9L.1 23.4c-.2.4-.1.7.2 1 .9.7 2.8 1.9 4.9 1.3.2 0 .4-.1.6-.3.9-1.2 4.9-6.2 6.5-9.5.1-.3.7-.2.7.1-.3 3.8-1.6 12.4-7.2 25.1-.2.4.3.7.7.6 2-.3 6.5-.7 14.2.3 8-1 12.6-.5 14.6-.3.5.1.9-.2.7-.6-5.8-12.8-7-21.4-7.3-25.2 0-.3.5-.3.6-.1 1.6 3.3 5.7 8.3 6.7 9.5.2.2.4.3.6.4 2.1.5 4.1-.7 5-1.4.4-.2.5-.6.3-.9zM12.8 10.7c1.3.8 3.2.4 4.8-.1.5-.1 1.2-.3 1.6-.7.5-.4.7-1 .7-1.6.1-1.6-1-3.1-1.1-4.7 0-.2 0-.5.1-.6.1-.3.5-.4.8-.5.8-.1 1.6-.3 2.3-.3.7.1 1.5.5 1.6 1 .1.6-.4 1-.7 1.5-1 1.3-.9 3.1.2 4.3 1.2 1.3 3.3 2 5.3 1.8 1.1-.1 2.1-.4 2.7-1.1.5-.6.7-1.4.7-2.1.2-1.6.2-3.2-.9-4.6-1-1.3-2.8-2.1-4.7-2.5-4.6-1.1-9.8-.3-13.5 1.9-.9.6-1.8 1.3-2.3 2.1-.9 1.8.1 3.7 1.5 5.3.2.4.5.7.9.9z"/></svg><svg version="1.2" viewBox="0 0 38 36" id="category-icon_3" xmlns="http://www.w3.org/2000/svg"><path class="ga" d="M36.5 19.5c-.9-6.2-4.3-13.9-4.4-14.2-.1-.2-.3-.4-.5-.4l-6.5-3c.9 1.2 1.7 2.7 1.8 4.3.1 2.1-.5 2.6-1 2.6-.6 0-1.1-.3-1.1-.3s1.9 1.6 1.2 3.9c-.4 1.4-1.7 2.9-2.9 5.2-.8 1.4-1.5 3.1-2.1 5.2-.5 1.8-.9 3.5-1.1 5v6.5c1.5.5 4.2 1.3 6.3 1.3 3 0 3.4-1.7 3.4-2.4 0-2.3-.6-4.2-1.1-5.8-.3-1.1-.6-2.1-.6-2.7.1-1 .6-3.4 1.1-5.4.3 1.3.6 2.9.9 4.9.8 5 1 11 1 11 0 .2.1.5.3.6q.2.3.6.2l5.4-.3c.5 0 .8-.4.8-.9-.3-4.7-.5-8.9-1.5-15.3zM14.8 2c0 .1-.1.2-.1.3q-.1.4-.1.8c-.1 1.5-.1 3.4.4 5.4.5 1.7 1.1 3.6 1.7 5.4 1.2 3.6 2.4 6.7 2.4 6.7s1.1-3.1 2.3-6.7c.6-1.8 1.2-3.7 1.7-5.4.9-3.4.2-6.6-.2-8.2-.5-.2-.9-.3-1.4-.3h-5.1q-.6 0-1.2.3c-.1.4-.3 1-.4 1.7zm2.1 26.8c-.7 0-1.3-.5-1.3-1.3 0-.7.6-1.3 1.3-1.3.5 0 .9.3 1.1.6-.2-1.2-.6-2.6-1-4.1-1.6-5.6-4.3-8.1-5-10.4-.7-2 .8-3.6 1.1-3.8-.2.1-.5.2-.9.3h-.1c-.6 0-1.3-.5-1.1-2.6.1-1.6.9-3.1 1.8-4.4L6.3 4.9c-.1 0-.3.2-.4.4-.1.3-3.6 8-4.5 14.2C.5 25.9.3 30.1 0 34.8c0 .4.3.8.8.9l5.4.3q.4-.1.6-.3.3-.2.3-.5c0-.1.2-6.1 1-11 .3-2 .6-3.7.9-4.9.5 2 1.1 4.4 1.1 5.3 0 .7-.3 1.6-.6 2.7-.5 1.6-1.1 3.5-1.1 5.8 0 .7.4 2.4 3.4 2.4 2.1 0 4.8-.8 6.3-1.3V28c-.2.5-.6.8-1.2.8z"/></svg><svg version="1.2" viewBox="0 0 29 42" id="category-icon_4" xmlns="http://www.w3.org/2000/svg"><path class="ha" d="M26.9 29.5q-1-2.5-1.6-5.2c-3.2 1.3-7.5 2.4-10.8 2.4-3.2 0-7.6-1-10.8-2.3Q3.1 27 2 29.6c6.9 4.1 18 4 24.9-.1zM4.5 17.1q0 2.9-.5 5.5c5.9 2.6 15.2 2.6 21-.1q-.4-2.6-.4-5.4c-3.1 1-7.2 1.6-10.1 1.6-2.8 0-6.9-.6-10-1.6zm23.7 16q-.2-1-.7-2c-3.7 2.1-8.8 3.6-13 3.6-4.1 0-9.4-1.4-13.2-3.5q-.4.9-.6 1.9c-1.1 3.9-.6 8-.6 8.2.1.4.5.7.9.7h27.1c.5 0 .8-.3.9-.8 0-.2.3-4.2-.8-8.1zm-24.1-18c5.7 2.4 15.3 2.4 20.9 0l.1-.1c.8-1.3 1.1-2.7.9-4.2-.4-2.7-2.4-4.8-5-5.3h-.3V.9c0-.5-.4-.9-.8-.9-.5 0-.9.4-.9.9v4.6c-1.1.1-2.1.5-2.9 1.2-.3.3-.8.5-1.3.5-.7 0-1.4-.2-1.9-.6-.8-.6-1.8-1-2.8-1.1V.9c0-.5-.4-.9-.9-.9-.4 0-.8.4-.8.9v4.6h-.3c-2.6.4-4.6 2.6-5 5.3-.2 1.5.1 2.9.9 4.2l.1.1z"/></svg><svg version="1.2" viewBox="0 0 37 45" id="category-icon_5" xmlns="http://www.w3.org/2000/svg"><path fill-rule="evenodd" class="ia" d="m15.6 34.3 18.3-7.7L37 33l-12.9 6zM21.9.1q.7 1 1.3 2.1c-6.7 2.3-14.1 2.3-20.8 0Q2.9 1.1 3.6.1C9.5 2 16 2 21.9.1zm-10 2.7c0 .4.4.8.9.8.4 0 .8-.4.8-.8v-.1c0-.4-.4-.8-.9-.7-.4 0-.8.3-.8.8zm8.9 1.8zm0 0q1.5-.4 3.1-.9c1.6 3.9 2 8.1 1.1 12.1-1 4.4-1.5 8.9-1.4 13.4l-8.3 3.5-2.2-15.2c0-.2-.1-.3-.3-.3-.2 0-.4.1-.4.3l-4 27.6H.5l1.1-11.4c.6-6 .3-12-1.1-17.9-.9-4-.5-8.2 1.2-12.1q1.5.5 3.1.9l-2.6 3q-.3 1.6-.4 3.1L6.6 5q2.6.5 5.3.6v6.5c1-.2 1.7-1.1 1.7-2.1V5.6q2.7-.1 5.3-.6l4.8 5.7q-.1-1.5-.4-3.1z"/></svg><svg version="1.2" viewBox="0 0 42 32" id="category-icon_6" xmlns="http://www.w3.org/2000/svg"><path class="ja" d="M28.1 0c-.5 0-.9.3-1 .8-.4 3-3 5.2-6.1 5.2-3.1 0-5.7-2.2-6.1-5.2 0-.5-.4-.8-.9-.8H8.8L8 30.9c0 .3.1.6.3.8.1.2.4.3.7.3h24.1c.2 0 .5-.2.7-.4q.2-.2.2-.6l-.8-31zM0 3.2v8.2c0 .3.3.6.5.8.3.2.6.2.9.1L7 10.2V0L.7 2.3c-.3.1-.7.5-.7.9zm41.4-.9L35 0v10.2l5.6 2.1c.3.1.7.1 1-.1.2-.2.4-.5.4-.8V3.2c0-.4-.3-.8-.6-.9z"/></svg><svg fill="none" viewBox="0 0 32 32" id="close-btn" xmlns="http://www.w3.org/2000/svg"><path d="m27.372 6.04-1.414-1.413-9.96 9.958-9.96-9.958L4.625 6.04 14.584 16l-9.959 9.96 1.413 1.413 9.96-9.958 9.96 9.958 1.414-1.413L17.413 16l9.959-9.96Z" fill="#58585A"/></svg><svg version="1.2" viewBox="0 0 18 12" id="flame_1" xmlns="http://www.w3.org/2000/svg"><path d="M0 0h6v12H0z" style="fill:#4441e2"/><path d="M6 0h6v12H6z" style="fill:#fff"/><path d="M12 0h6v12h-6z" style="fill:#ff1f00"/></svg><svg version="1.2" viewBox="0 0 18 12" id="flame_2" xmlns="http://www.w3.org/2000/svg"><path d="M0 0h6v12H0z" style="fill:#009246"/><path d="M6 0h6v12H6z" style="fill:#fff"/><path d="M12 0h6v12h-6z" style="fill:#ff1f00"/></svg><svg version="1.2" viewBox="0 0 19 19" id="search" xmlns="http://www.w3.org/2000/svg"><path fill-rule="evenodd" d="M13.2 8q0-2.1-1.5-3.6T8 2.9q-2.1 0-3.6 1.5T2.9 8q0 2.2 1.5 3.7T8 13.2q2.2 0 3.7-1.5T13.2 8zm5.8 9.5q0 .6-.4 1.1-.5.4-1.1.4-.6 0-1-.4l-3.9-3.9q-2 1.4-4.6 1.4-1.6 0-3.1-.7-1.5-.6-2.6-1.7-1-1-1.7-2.5Q0 9.7 0 8q0-1.6.6-3.1.7-1.5 1.7-2.6 1.1-1 2.6-1.7Q6.4 0 8 0q1.7 0 3.2.6 1.5.7 2.5 1.7 1.1 1.1 1.7 2.6.7 1.5.7 3.1 0 2.5-1.4 4.6l3.9 3.9q.4.4.4 1z"/></svg></svg>